<?xml version="1.0" encoding="utf-8"?>
<!-- Generator: Adobe Illustrator 25.0.1, SVG Export Plug-In . SVG Version: 6.00 Build 0)  -->
<svg version="1.1" id="katman_1" xmlns="http://www.w3.org/2000/svg" xmlns:xlink="http://www.w3.org/1999/xlink" x="0px" y="0px"
	 viewBox="0 0 560 400" style="enable-background:new 0 0 560 400;" xml:space="preserve">
<style type="text/css">
	.st0{fill:#F4B400;}
	.st1{fill:url(#SVGID_1_);}
	.st2{fill:#3E2723;fill-opacity:0.2;}
	.st3{fill:#FADA80;}
	.st4{fill:#FFFFFF;fill-opacity:0.2;}
	.st5{fill:#3E2723;fill-opacity:0.1;}
	.st6{fill:#F1F1F1;}
	.st7{fill:#FFFFFF;fill-opacity:0.4;}
	.st8{fill:#BF360C;fill-opacity:0.1;}
	.st9{fill:url(#SVGID_2_);}
</style>
<g transform="matrix(.0409335 0 0 .0409335 145 65.0727)">
	<path class="st0" d="M4686.6,6592.4H520.7C233.5,6591.6,0.8,6359.1,0,6072V520.5C0.8,233.4,233.5,0.8,520.7,0h5554.5
		c287.2,0.8,519.9,233.4,520.7,520.5v4163.6l-1128.3,780.7L4686.6,6592.4z"/>
	
		<linearGradient id="SVGID_1_" gradientUnits="userSpaceOnUse" x1="-20044.7871" y1="16541.0352" x2="-20043.7871" y2="16541.0352" gradientTransform="matrix(146.0389 145.9578 145.9578 -146.0389 515132.6562 5343327.5)">
		<stop  offset="0" style="stop-color:#BF360C;stop-opacity:0.1"/>
		<stop  offset="1" style="stop-color:#BF360C;stop-opacity:2.000000e-02"/>
	</linearGradient>
	<path class="st1" d="M2194,1496.7c-610.4,609.1-611.2,1597.5-1.8,2207.6l0.9,0.9l323.7,324.4v1174.9l1388.6,1387.9h781.1
		L6596,4684.1v-993.6l-2193.2-2192C3793.4,888.4,2804.5,887.6,2194,1496.7z"/>
	<path class="st2" d="M4686.6,6592.4V5204.5c-0.1-287.4,232.9-520.4,520.5-520.5H6596L4686.6,6592.4z"/>
	<path class="st3" d="M4686.6,6592.4V5204.5c-0.1-287.4,232.9-520.4,520.5-520.5H6596L4686.6,6592.4z"/>
	<path class="st4" d="M5207.1,4684.1c-287.5,0.1-520.5,233.1-520.5,520.5v43.1c0.1-287.4,233.2-520.3,520.7-520.2h1345.2l43.4-43.4
		H5207.3C5207.3,4684.1,5207.2,4684.1,5207.1,4684.1L5207.1,4684.1z"/>
	<path class="st5" d="M3298,1040.9c-862.7-0.1-1562.1,698.8-1562.2,1561c-0.1,557.9,297.7,1073.4,781.1,1352.3v1250.4H2864v347
		h954.7v-347h347.2V3900.4c717.4-479,910.4-1448.6,431.1-2165.5C4307.1,1301.2,3819.8,1040.9,3298,1040.9L3298,1040.9z
		 M3818.7,4857.6H2864v-347h954.7V4857.6z M3818.7,3699.1v464.5H2864v-427.2c-627-239.4-941.1-941.5-701.6-1568.1
		c239.5-626.7,942-940.6,1569-701.2c627,239.4,941.1,941.5,701.6,1568.1C4321.4,3327.3,4101.4,3565.1,3818.7,3699.1z"/>
	<path class="st6" d="M3298,1040.9c-862.7-0.1-1562.1,698.8-1562.2,1561c-0.1,557.9,297.7,1073.4,781.1,1352.3v1250.4H2864v347
		h954.7v-347h347.2V3900.4c717.4-479,910.4-1448.6,431.1-2165.5C4307.1,1301.2,3819.8,1040.9,3298,1040.9L3298,1040.9z
		 M3818.7,4857.6H2864v-347h954.7V4857.6z M3818.7,3699.1v464.5H2864v-427.2c-627-239.4-941.1-941.5-701.6-1568.1
		c239.5-626.7,942-940.6,1569-701.2c627,239.4,941.1,941.5,701.6,1568.1C4321.4,3327.3,4101.4,3565.1,3818.7,3699.1z"/>
	<path class="st7" d="M2864,4901h954.7v-43.4H2864V4901z M2864,4207h954.7v-43.4H2864V4207z M2864,3736.4
		c-464-178-772.9-620.2-780.2-1116.8c0,8.7-0.9,17.3-0.9,26.4c0.7,503.1,311.2,953.9,781.1,1134.2V3736.4z M3818.7,3699.1v43.4
		c423.6-201.3,693.8-628,694.3-1096.9c0-8.7-0.4-16.9-0.9-25.6C4505.3,3082.3,4236.5,3500.6,3818.7,3699.1z M3298,1040.9
		c-862.7,0.1-1562.1,699.1-1562.2,1561.4c0,6.1,0.4,12.1,0.4,18.6c13.5-862.1,723.7-1550,1586.3-1536.5
		c843.6,13.2,1524.3,693.7,1537.3,1536.9c0-6.5,0.4-12.6,0.4-19.1C4860.1,1740,4160.7,1041,3298,1040.9z"/>
	<path class="st8" d="M2516.9,3954.2c-477.4-275.5-774.1-782.3-780.7-1333.2c0,8.2-0.4,16.5-0.4,24.7
		c-0.2,557.8,297.6,1073.3,781.1,1351.9V3954.2z M2864,4554h954.7v-43.4H2864V4554z M3298,1431.3
		c660.7,0.7,1199.9,528.6,1214.2,1188.8c0-6.1,0.9-11.7,0.9-17.8c0-670.7-544-1214.4-1215-1214.4s-1215,543.7-1215,1214.4
		c0,5.6,0.4,11.3,0.9,16.9C2098.5,1959.3,2637.6,1431.9,3298,1431.3L3298,1431.3z M3818.7,5247.9h347.2v-43.4h-347.2V5247.9z
		 M4859.8,2621.4c-5.8,514.7-265.5,993.4-693.9,1279v43.4c434.1-289.4,694.7-776.6,694.3-1298.1
		C4860.2,2637.4,4859.8,2629.6,4859.8,2621.4L4859.8,2621.4z M2864,5204.5h-347.2v43.4H2864V5204.5z M2864,5594.9h954.7v-43.4H2864
		V5594.9z"/>
	<path class="st4" d="M6075.2,0H520.7C233.5,0.8,0.8,233.4,0,520.5v43.4C0.8,276.7,233.5,44.2,520.7,43.4h5554.5
		c287.2,0.8,519.9,233.4,520.7,520.5v-43.4C6595.1,233.4,6362.5,0.8,6075.2,0L6075.2,0z"/>
	<path class="st8" d="M520.7,6549.1C233.5,6548.2,0.8,6315.7,0,6028.6v43.4c0.8,287.1,233.5,519.6,520.7,520.5h4165.9L6596,4684.1
		h-43.4l-1866,1865L520.7,6549.1z"/>
	
		<radialGradient id="SVGID_2_" cx="-20077.2363" cy="16486.2734" r="1" gradientTransform="matrix(314.5826 0 0 -314.4082 6316147 5183631)" gradientUnits="userSpaceOnUse">
		<stop  offset="0" style="stop-color:#FFFFFF;stop-opacity:0.1"/>
		<stop  offset="1" style="stop-color:#FFFFFF;stop-opacity:0"/>
	</radialGradient>
	<path class="st9" d="M4686.6,6592.4H520.7C233.5,6591.6,0.8,6359.1,0,6072V520.5C0.8,233.4,233.5,0.8,520.7,0h5554.5
		c287.2,0.8,519.9,233.4,520.7,520.5v4163.6L4686.6,6592.4z"/>
</g>
</svg>
